<mxfile host="app.diagrams.net" modified="2024-05-12T16:17:45.984Z" agent="Mozilla/5.0 (Windows NT 10.0; Win64; x64) AppleWebKit/537.36 (KHTML, like Gecko) Chrome/124.0.0.0 Safari/537.36" etag="Q1cIUy08_WjTyH8-Kp6h" version="24.4.0" type="github">
  <diagram name="Page-1" id="DsZ5GqTjs1HhDpKgPu7a">
    <mxGraphModel dx="880" dy="2668" grid="1" gridSize="10" guides="1" tooltips="1" connect="1" arrows="1" fold="1" page="1" pageScale="1" pageWidth="850" pageHeight="1100" background="none" math="0" shadow="0">
      <root>
        <mxCell id="0" />
        <mxCell id="1" parent="0" />
        <mxCell id="BBzoVsDy-WTd4VNx-Wts-2" value="START" style="ellipse;whiteSpace=wrap;html=1;" parent="1" vertex="1">
          <mxGeometry x="310" y="-1240" width="120" height="80" as="geometry" />
        </mxCell>
        <mxCell id="BBzoVsDy-WTd4VNx-Wts-3" value="" style="endArrow=none;html=1;rounded=0;entryX=0.5;entryY=1;entryDx=0;entryDy=0;" parent="1" target="BBzoVsDy-WTd4VNx-Wts-2" edge="1">
          <mxGeometry width="50" height="50" relative="1" as="geometry">
            <mxPoint x="370" y="-1130" as="sourcePoint" />
            <mxPoint x="450" y="-1150" as="targetPoint" />
          </mxGeometry>
        </mxCell>
        <mxCell id="BBzoVsDy-WTd4VNx-Wts-4" value="STRING S1;&lt;div&gt;STRING S2;&lt;/div&gt;&lt;div&gt;STRING S3;&lt;/div&gt;" style="rounded=0;whiteSpace=wrap;html=1;" parent="1" vertex="1">
          <mxGeometry x="310" y="-1130" width="120" height="60" as="geometry" />
        </mxCell>
        <mxCell id="BBzoVsDy-WTd4VNx-Wts-5" value="" style="endArrow=classic;html=1;rounded=0;exitX=0.5;exitY=1;exitDx=0;exitDy=0;" parent="1" source="BBzoVsDy-WTd4VNx-Wts-4" edge="1">
          <mxGeometry width="50" height="50" relative="1" as="geometry">
            <mxPoint x="400" y="-1100" as="sourcePoint" />
            <mxPoint x="370" y="-1030" as="targetPoint" />
          </mxGeometry>
        </mxCell>
        <mxCell id="BBzoVsDy-WTd4VNx-Wts-6" value="CIN&lt;div&gt;S1;&lt;div&gt;S2;&lt;/div&gt;&lt;div&gt;S3;&lt;/div&gt;&lt;/div&gt;" style="shape=parallelogram;perimeter=parallelogramPerimeter;whiteSpace=wrap;html=1;fixedSize=1;" parent="1" vertex="1">
          <mxGeometry x="310" y="-1030" width="120" height="60" as="geometry" />
        </mxCell>
        <mxCell id="BBzoVsDy-WTd4VNx-Wts-8" value="" style="endArrow=none;html=1;rounded=0;entryX=0;entryY=0.5;entryDx=0;entryDy=0;" parent="1" target="BBzoVsDy-WTd4VNx-Wts-6" edge="1">
          <mxGeometry width="50" height="50" relative="1" as="geometry">
            <mxPoint x="120" y="-1000" as="sourcePoint" />
            <mxPoint x="450" y="-980" as="targetPoint" />
          </mxGeometry>
        </mxCell>
        <mxCell id="BBzoVsDy-WTd4VNx-Wts-9" value="" style="endArrow=classic;html=1;rounded=0;" parent="1" edge="1">
          <mxGeometry width="50" height="50" relative="1" as="geometry">
            <mxPoint x="120" y="-1000" as="sourcePoint" />
            <mxPoint x="120" y="-960" as="targetPoint" />
          </mxGeometry>
        </mxCell>
        <mxCell id="BBzoVsDy-WTd4VNx-Wts-10" value="IF" style="rhombus;whiteSpace=wrap;html=1;" parent="1" vertex="1">
          <mxGeometry x="80" y="-960" width="80" height="80" as="geometry" />
        </mxCell>
        <mxCell id="BBzoVsDy-WTd4VNx-Wts-11" value="" style="endArrow=classic;html=1;rounded=0;exitX=1;exitY=0.5;exitDx=0;exitDy=0;" parent="1" source="BBzoVsDy-WTd4VNx-Wts-10" edge="1">
          <mxGeometry width="50" height="50" relative="1" as="geometry">
            <mxPoint x="400" y="-930" as="sourcePoint" />
            <mxPoint x="240" y="-920" as="targetPoint" />
          </mxGeometry>
        </mxCell>
        <mxCell id="BBzoVsDy-WTd4VNx-Wts-12" value="&lt;div style=&quot;font-family: Consolas, &amp;quot;Courier New&amp;quot;, monospace; font-size: 14px; line-height: 19px; white-space: pre;&quot;&gt;&lt;font color=&quot;#0d1117&quot; style=&quot;background-color: rgb(255, 255, 255);&quot;&gt;s1 &amp;lt;= s2 &amp;amp;&amp;amp; s1 &amp;lt;= s3&lt;/font&gt;&lt;/div&gt;" style="rounded=0;whiteSpace=wrap;html=1;" parent="1" vertex="1">
          <mxGeometry x="240" y="-950" width="170" height="60" as="geometry" />
        </mxCell>
        <mxCell id="BBzoVsDy-WTd4VNx-Wts-13" value="" style="endArrow=classic;html=1;rounded=0;exitX=1;exitY=0.5;exitDx=0;exitDy=0;" parent="1" source="BBzoVsDy-WTd4VNx-Wts-12" edge="1">
          <mxGeometry width="50" height="50" relative="1" as="geometry">
            <mxPoint x="400" y="-930" as="sourcePoint" />
            <mxPoint x="480" y="-920" as="targetPoint" />
          </mxGeometry>
        </mxCell>
        <mxCell id="BBzoVsDy-WTd4VNx-Wts-14" value="COUT&amp;nbsp;&lt;div&gt;S1;&lt;/div&gt;" style="shape=parallelogram;perimeter=parallelogramPerimeter;whiteSpace=wrap;html=1;fixedSize=1;" parent="1" vertex="1">
          <mxGeometry x="470" y="-950" width="120" height="60" as="geometry" />
        </mxCell>
        <mxCell id="BBzoVsDy-WTd4VNx-Wts-16" value="" style="endArrow=classic;html=1;rounded=0;" parent="1" edge="1">
          <mxGeometry width="50" height="50" relative="1" as="geometry">
            <mxPoint x="119.5" y="-880" as="sourcePoint" />
            <mxPoint x="119.5" y="-840" as="targetPoint" />
          </mxGeometry>
        </mxCell>
        <mxCell id="BBzoVsDy-WTd4VNx-Wts-17" value="ELSE IF" style="rhombus;whiteSpace=wrap;html=1;" parent="1" vertex="1">
          <mxGeometry x="80" y="-840" width="80" height="80" as="geometry" />
        </mxCell>
        <mxCell id="BBzoVsDy-WTd4VNx-Wts-18" value="" style="endArrow=classic;html=1;rounded=0;exitX=1;exitY=0.5;exitDx=0;exitDy=0;entryX=0;entryY=0.5;entryDx=0;entryDy=0;" parent="1" source="BBzoVsDy-WTd4VNx-Wts-17" target="BBzoVsDy-WTd4VNx-Wts-19" edge="1">
          <mxGeometry width="50" height="50" relative="1" as="geometry">
            <mxPoint x="410" y="-780" as="sourcePoint" />
            <mxPoint x="250" y="-770" as="targetPoint" />
          </mxGeometry>
        </mxCell>
        <mxCell id="BBzoVsDy-WTd4VNx-Wts-19" value="&lt;div style=&quot;font-family: Consolas, &amp;quot;Courier New&amp;quot;, monospace; font-size: 14px; line-height: 19px; white-space: pre;&quot;&gt;&lt;div style=&quot;line-height: 19px;&quot;&gt;&lt;font style=&quot;background-color: rgb(255, 255, 255);&quot; color=&quot;#000033&quot;&gt;s2 &amp;lt;= s1 &amp;amp;&amp;amp; s2 &amp;lt;= s3&lt;/font&gt;&lt;/div&gt;&lt;/div&gt;" style="rounded=0;whiteSpace=wrap;html=1;" parent="1" vertex="1">
          <mxGeometry x="240" y="-830" width="170" height="60" as="geometry" />
        </mxCell>
        <mxCell id="BBzoVsDy-WTd4VNx-Wts-20" value="" style="endArrow=classic;html=1;rounded=0;exitX=1;exitY=0.5;exitDx=0;exitDy=0;entryX=0;entryY=0.5;entryDx=0;entryDy=0;" parent="1" source="BBzoVsDy-WTd4VNx-Wts-19" target="BBzoVsDy-WTd4VNx-Wts-21" edge="1">
          <mxGeometry width="50" height="50" relative="1" as="geometry">
            <mxPoint x="410" y="-780" as="sourcePoint" />
            <mxPoint x="490" y="-770" as="targetPoint" />
          </mxGeometry>
        </mxCell>
        <mxCell id="BBzoVsDy-WTd4VNx-Wts-21" value="COUT&amp;nbsp;&lt;div&gt;S2;&lt;/div&gt;" style="shape=parallelogram;perimeter=parallelogramPerimeter;whiteSpace=wrap;html=1;fixedSize=1;" parent="1" vertex="1">
          <mxGeometry x="470" y="-830" width="120" height="60" as="geometry" />
        </mxCell>
        <mxCell id="BBzoVsDy-WTd4VNx-Wts-22" value="" style="endArrow=classic;html=1;rounded=0;" parent="1" edge="1">
          <mxGeometry width="50" height="50" relative="1" as="geometry">
            <mxPoint x="119.5" y="-760" as="sourcePoint" />
            <mxPoint x="119.5" y="-720" as="targetPoint" />
          </mxGeometry>
        </mxCell>
        <mxCell id="BBzoVsDy-WTd4VNx-Wts-23" value="ELSE IF" style="rhombus;whiteSpace=wrap;html=1;" parent="1" vertex="1">
          <mxGeometry x="80" y="-720" width="80" height="80" as="geometry" />
        </mxCell>
        <mxCell id="BBzoVsDy-WTd4VNx-Wts-24" value="" style="endArrow=classic;html=1;rounded=0;exitX=1;exitY=0.5;exitDx=0;exitDy=0;entryX=0;entryY=0.5;entryDx=0;entryDy=0;" parent="1" source="BBzoVsDy-WTd4VNx-Wts-23" target="BBzoVsDy-WTd4VNx-Wts-25" edge="1">
          <mxGeometry width="50" height="50" relative="1" as="geometry">
            <mxPoint x="410" y="-660" as="sourcePoint" />
            <mxPoint x="250" y="-650" as="targetPoint" />
          </mxGeometry>
        </mxCell>
        <mxCell id="BBzoVsDy-WTd4VNx-Wts-25" value="&lt;div style=&quot;font-family: Consolas, &amp;quot;Courier New&amp;quot;, monospace; font-size: 14px; line-height: 19px; white-space: pre;&quot;&gt;&lt;div style=&quot;line-height: 19px;&quot;&gt;&lt;div style=&quot;line-height: 19px;&quot;&gt;&lt;font style=&quot;background-color: rgb(255, 255, 255);&quot; color=&quot;#0d1117&quot;&gt;s3 &amp;lt;= s1 &amp;amp;&amp;amp; s3 &amp;lt;= s2&lt;/font&gt;&lt;/div&gt;&lt;/div&gt;&lt;/div&gt;" style="rounded=0;whiteSpace=wrap;html=1;" parent="1" vertex="1">
          <mxGeometry x="240" y="-710" width="170" height="60" as="geometry" />
        </mxCell>
        <mxCell id="BBzoVsDy-WTd4VNx-Wts-26" value="" style="endArrow=classic;html=1;rounded=0;exitX=1;exitY=0.5;exitDx=0;exitDy=0;entryX=0;entryY=0.5;entryDx=0;entryDy=0;" parent="1" source="BBzoVsDy-WTd4VNx-Wts-25" target="BBzoVsDy-WTd4VNx-Wts-27" edge="1">
          <mxGeometry width="50" height="50" relative="1" as="geometry">
            <mxPoint x="410" y="-660" as="sourcePoint" />
            <mxPoint x="490" y="-650" as="targetPoint" />
          </mxGeometry>
        </mxCell>
        <mxCell id="BBzoVsDy-WTd4VNx-Wts-27" value="COUT&amp;nbsp;&lt;div&gt;S3;&lt;/div&gt;" style="shape=parallelogram;perimeter=parallelogramPerimeter;whiteSpace=wrap;html=1;fixedSize=1;" parent="1" vertex="1">
          <mxGeometry x="470" y="-710" width="120" height="60" as="geometry" />
        </mxCell>
        <mxCell id="BBzoVsDy-WTd4VNx-Wts-28" value="" style="endArrow=classic;html=1;rounded=0;exitX=1;exitY=0.5;exitDx=0;exitDy=0;" parent="1" source="BBzoVsDy-WTd4VNx-Wts-27" edge="1">
          <mxGeometry width="50" height="50" relative="1" as="geometry">
            <mxPoint x="400" y="-660" as="sourcePoint" />
            <mxPoint x="620" y="-680" as="targetPoint" />
          </mxGeometry>
        </mxCell>
        <mxCell id="BBzoVsDy-WTd4VNx-Wts-29" value="END" style="ellipse;whiteSpace=wrap;html=1;" parent="1" vertex="1">
          <mxGeometry x="620" y="-720" width="120" height="80" as="geometry" />
        </mxCell>
        <mxCell id="BBzoVsDy-WTd4VNx-Wts-30" value="" style="endArrow=classic;html=1;rounded=0;exitX=1;exitY=0.5;exitDx=0;exitDy=0;" parent="1" edge="1">
          <mxGeometry width="50" height="50" relative="1" as="geometry">
            <mxPoint x="580" y="-800" as="sourcePoint" />
            <mxPoint x="620" y="-800" as="targetPoint" />
          </mxGeometry>
        </mxCell>
        <mxCell id="BBzoVsDy-WTd4VNx-Wts-31" value="END" style="ellipse;whiteSpace=wrap;html=1;" parent="1" vertex="1">
          <mxGeometry x="620" y="-840" width="120" height="80" as="geometry" />
        </mxCell>
        <mxCell id="BBzoVsDy-WTd4VNx-Wts-32" value="" style="endArrow=classic;html=1;rounded=0;exitX=1;exitY=0.5;exitDx=0;exitDy=0;" parent="1" edge="1">
          <mxGeometry width="50" height="50" relative="1" as="geometry">
            <mxPoint x="590" y="-920" as="sourcePoint" />
            <mxPoint x="630" y="-920" as="targetPoint" />
          </mxGeometry>
        </mxCell>
        <mxCell id="BBzoVsDy-WTd4VNx-Wts-33" value="END" style="ellipse;whiteSpace=wrap;html=1;" parent="1" vertex="1">
          <mxGeometry x="630" y="-960" width="120" height="80" as="geometry" />
        </mxCell>
      </root>
    </mxGraphModel>
  </diagram>
</mxfile>
